<mxfile host="app.diagrams.net" modified="2023-06-25T14:34:52.488Z" agent="Mozilla/5.0 (Macintosh; Intel Mac OS X 10_15_7) AppleWebKit/537.36 (KHTML, like Gecko) Chrome/114.0.0.0 Safari/537.36" version="21.2.3" etag="OPrGZXIlP1Sbs1tyh7Gi" type="github">
  <diagram name="Page-1" id="ZW21x3WxDeERBMx6ZOWc">
    <mxGraphModel>
      <root>
        <mxCell id="0" />
        <mxCell id="1" parent="0" />
      </root>
    </mxGraphModel>
  </diagram>
</mxfile>
